<svg width="58" height="58" viewBox="0 0 58 58" fill="none" xmlns="http://www.w3.org/2000/svg">
<g clip-path="url(#clip0_70758_16)" filter="url(#filter0_d_70758_16)">
<path d="M50.2908 33.454C48.2721 32.738 46.5691 32.9172 45.2248 33.4823C45.4507 32.1116 45.9596 30.6199 47.0522 29.6062C47.726 28.9813 47.7654 27.9286 47.1405 27.2549C46.5159 26.5813 45.463 26.5418 44.7891 27.1667C42.8686 28.9482 42.1241 31.4611 41.861 33.5433C41.361 33.3189 40.8093 33.1475 40.2081 33.0567L43.1615 17.698C43.2553 17.2104 43.1265 16.7067 42.8103 16.3241C42.4943 15.9414 42.024 15.7199 41.5275 15.7199H41.2086C41.3551 14.9379 41.429 14.1616 41.4231 13.4232C41.3984 10.3081 40.0118 7.96162 37.7142 7.14663C35.5115 6.36515 33.6679 6.6 32.2346 7.24983C32.4618 5.72525 33.0068 4.02576 34.2373 2.88435C34.911 2.25943 34.9504 1.20674 34.3255 0.532999C33.7009 -0.14057 32.6479 -0.180133 31.9741 0.444783C29.9112 2.35859 29.1383 5.07795 28.8775 7.29849C27.7292 6.75455 26.3091 6.47576 24.6455 6.78249C22.9359 4.32727 20.5628 3.19562 18.2558 3.74866C15.9879 4.29327 14.5714 5.49142 13.7231 6.81448C13.0822 5.40943 12.6107 3.68738 13.0174 2.07054C13.2415 1.17929 12.7007 0.275254 11.8096 0.051012C10.9181 -0.173735 10.0144 0.36751 9.79011 1.25876C9.10375 3.98738 9.93793 6.6894 10.9295 8.69327C9.3418 8.90775 7.62126 9.70842 6.16604 11.6088C5.2625 12.7889 4.95762 14.2621 5.2349 15.8268C4.96486 15.9278 4.7216 16.0966 4.53372 16.3241C4.21772 16.7067 4.08877 17.2104 4.18254 17.698L10.1342 48.6503C10.2849 49.4337 10.9704 50 11.7682 50H35.5756C36.3734 50 37.059 49.4337 37.2096 48.6503L37.2682 48.3458C37.7169 48.6549 38.1989 48.9135 38.7162 49.1062C40.6948 49.8429 42.5389 49.5406 43.4721 49.2906C43.9657 49.4229 44.7144 49.5699 45.6031 49.5699C46.394 49.5699 47.2962 49.4534 48.2278 49.1062C51.916 47.7322 53.8755 43.1072 53.8465 39.453C53.8233 36.4781 52.494 34.2355 50.2908 33.454ZM39.4287 19.0476C38.6625 26.3998 32.4723 31.4062 23.8489 31.4062C15.2255 31.4062 9.03523 26.3997 8.26907 19.0476H39.4287ZM29.0502 11.7421C29.3381 12.2867 29.8876 12.6276 30.5041 12.6276C31.1206 12.6276 31.6699 12.2867 31.958 11.7421C32.0032 11.667 32.4113 11.0141 33.1598 10.5283C34.1428 9.89057 35.2686 9.81027 36.6016 10.283C37.9309 10.7544 38.0889 12.6545 38.0953 13.4495C38.1011 14.1737 37.9948 14.9519 37.7975 15.7197H26.6637C27.0319 13.8611 26.8108 11.8263 26.2123 9.98738C26.8007 10.0216 27.3433 10.201 27.848 10.5283C28.5968 11.0141 29.0046 11.6668 29.0502 11.7421ZM8.80846 13.6317C9.66823 12.5089 10.6558 11.9626 11.8278 11.9615H11.831C12.7223 11.9615 13.4187 12.2859 13.4972 12.3239C14.0298 12.62 14.6672 12.5929 15.1825 12.2657C15.7 11.9367 15.9795 11.3414 15.9342 10.7298C15.9253 10.6094 15.7538 7.77138 19.0329 6.98418C20.4021 6.65488 21.5726 8.16162 22.0113 8.82492C23.2726 10.7318 23.9197 13.6806 23.2251 15.7195H8.61756C8.39752 15.0281 8.33826 14.246 8.80846 13.6317ZM13.143 46.6722L9.84466 29.5197C10.0608 29.7274 10.2834 29.9301 10.5125 30.1274C13.9622 33.098 18.6985 34.734 23.8489 34.734C28.9992 34.734 33.7356 33.0982 37.1852 30.1274C37.2657 30.0583 37.3443 29.9874 37.4231 29.9168L36.7492 33.4219C36.7172 33.4328 36.6857 33.4428 36.6536 33.454C34.4504 34.2355 33.1211 36.4781 33.0977 39.453C33.0832 41.2724 33.5622 43.3322 34.5014 45.1116L34.2014 46.6722H13.143ZM47.0662 45.9879C45.5921 46.5369 44.1273 46.0152 44.0728 45.9953C43.6827 45.8443 43.2627 45.8406 42.8731 45.9948C42.8583 46.0005 41.3729 46.5446 39.8782 45.9877C37.7883 45.2093 36.4054 41.9938 36.4253 39.4793C36.4312 38.7515 36.5731 37.0133 37.766 36.5902C38.312 36.3966 38.7995 36.3172 39.233 36.3172C40.9635 36.3172 41.8228 37.5857 42.0176 37.9175C42.3049 38.4643 42.8543 38.8067 43.4723 38.8067C44.0905 38.8067 44.6396 38.464 44.927 37.9175C45.1706 37.5027 46.4529 35.6239 49.1785 36.5902C50.3713 37.0131 50.5133 38.7515 50.5192 39.4793C50.5389 41.9939 49.1561 45.2094 47.0662 45.9879Z" fill="#FFA5BA"/>
</g>
<defs>
<filter id="filter0_d_70758_16" x="0" y="0" width="58" height="58" filterUnits="userSpaceOnUse" color-interpolation-filters="sRGB">
<feFlood flood-opacity="0" result="BackgroundImageFix"/>
<feColorMatrix in="SourceAlpha" type="matrix" values="0 0 0 0 0 0 0 0 0 0 0 0 0 0 0 0 0 0 127 0" result="hardAlpha"/>
<feOffset dy="4"/>
<feGaussianBlur stdDeviation="2"/>
<feComposite in2="hardAlpha" operator="out"/>
<feColorMatrix type="matrix" values="0 0 0 0 0 0 0 0 0 0 0 0 0 0 0 0 0 0 0.25 0"/>
<feBlend mode="normal" in2="BackgroundImageFix" result="effect1_dropShadow_70758_16"/>
<feBlend mode="normal" in="SourceGraphic" in2="effect1_dropShadow_70758_16" result="shape"/>
</filter>
<clipPath id="clip0_70758_16">
<rect width="50" height="50" fill="white" transform="translate(4)"/>
</clipPath>
</defs>
</svg>
